<svg width="24" height="24" viewBox="0 0 24 24" fill="none" xmlns="http://www.w3.org/2000/svg">
<path fill-rule="evenodd" clip-rule="evenodd" d="M24 12C24 18.6274 18.6274 24 12 24C5.37258 24 0 18.6274 0 12C0 5.37258 5.37258 0 12 0C18.6274 0 24 5.37258 24 12ZM13.6 10.3H18.6C19.1 10.3 19.5 10.7 19.4 11.1V12.8C19.4 13.2 19.1 13.6 18.6 13.6H13.6V18.6C13.6 19 13.3 19.4 12.8 19.4H11.1C10.7 19.4 10.3 19.1 10.3 18.6V13.6H5.29999C4.89999 13.6 4.5 13.3 4.5 12.8V11.1C4.5 10.7 4.79999 10.3 5.29999 10.3H10.3V5.3C10.3 4.9 10.6 4.5 11.1 4.5H12.8C13.2 4.5 13.6 4.8 13.6 5.3V10.3Z" fill="#183153"/>
</svg>
