<svg width="24" height="24" viewBox="0 0 24 24" fill="none" xmlns="http://www.w3.org/2000/svg">
<rect width="24" height="24" rx="12" fill="#183153"/>
<path d="M18.8669 8.24075C18.3938 8.45042 17.8855 8.59209 17.3511 8.65612C17.9025 8.3262 18.315 7.80694 18.5116 7.19523C17.9936 7.50293 17.4266 7.71952 16.8354 7.83557C16.4378 7.41106 15.9112 7.12968 15.3373 7.03513C14.7634 6.94058 14.1744 7.03814 13.6616 7.31268C13.1488 7.58721 12.741 8.02335 12.5016 8.55338C12.2621 9.08342 12.2043 9.6777 12.3371 10.2439C11.2875 10.1912 10.2606 9.91842 9.32323 9.44318C8.38583 8.96794 7.55884 8.30091 6.89591 7.48537C6.66924 7.87637 6.53891 8.32972 6.53891 8.81252C6.53866 9.24716 6.64569 9.67514 6.85051 10.0585C7.05533 10.4418 7.35161 10.7687 7.71306 11.0101C7.29388 10.9968 6.88394 10.8835 6.51738 10.6797V10.7137C6.51733 11.3233 6.7282 11.9142 7.11419 12.386C7.50018 12.8578 8.03752 13.1816 8.63504 13.3023C8.24618 13.4075 7.83849 13.423 7.44276 13.3476C7.61134 13.8722 7.93973 14.3308 8.38195 14.6594C8.82416 14.9881 9.35807 15.1702 9.90893 15.1803C8.97382 15.9143 7.81897 16.3125 6.63014 16.3108C6.41956 16.3108 6.20915 16.2985 6 16.2739C7.20672 17.0498 8.61144 17.4616 10.0461 17.46C14.9025 17.46 17.5574 13.4377 17.5574 9.94927C17.5574 9.83594 17.5545 9.72147 17.5494 9.60814C18.0658 9.23468 18.5116 8.77223 18.8658 8.24245L18.8669 8.24075Z" fill="white"/>
</svg>
