<svg width="24" height="24" viewBox="0 0 24 24" fill="none" xmlns="http://www.w3.org/2000/svg">
<path d="M23 23.5H1C0.813624 23.5 0.697164 23.4401 0.628553 23.3714C0.559943 23.3028 0.5 23.1864 0.5 23V1C0.5 0.813624 0.559943 0.697164 0.628553 0.628553C0.697164 0.559943 0.813624 0.5 1 0.5H23C23.1864 0.5 23.3028 0.559943 23.3714 0.628553C23.4401 0.697164 23.5 0.813624 23.5 1V23C23.5 23.1864 23.4401 23.3028 23.3714 23.3714C23.3028 23.4401 23.1864 23.5 23 23.5Z" stroke="#183153"/>
<path d="M18.1 13.5H5.9C5.4 13.5 5 13.1 5 12.6V11.4C5 10.9 5.4 10.5 5.9 10.5H18.1C18.6 10.5 19 10.9 19 11.4V12.6C19 13.1 18.6 13.5 18.1 13.5Z" fill="#183153"/>
</svg>
