<svg width="24" height="24" viewBox="0 0 24 24" fill="none" xmlns="http://www.w3.org/2000/svg">
<path fill-rule="evenodd" clip-rule="evenodd" d="M1 24H23C23.6 24 24 23.6 24 23V1C24 0.4 23.6 0 23 0H1C0.4 0 0 0.4 0 1V23C0 23.6 0.4 24 1 24ZM19 12.2C19 12.8 18.5 13.2 18 13.2H13.1V17.9C13.1 18.5 12.7 18.9 12.1 18.9C11.6 18.9 11.1 18.5 11.1 17.9V13.2H6C5.4 13.2 5 12.8 5 12.2C5 11.7 5.4 11.2 6 11.2H11.1V5.89999C11.1 5.29999 11.6 4.89999 12.1 4.89999C12.7 4.89999 13.1 5.39999 13.1 5.89999V11.2H18C18.5 11.2 19 11.6 19 12.2Z" fill="#183153"/>
</svg>
