<svg width="24" height="24" viewBox="0 0 24 24" fill="none" xmlns="http://www.w3.org/2000/svg">
<path d="M23 23.5H1C0.813624 23.5 0.697164 23.4401 0.628553 23.3714C0.559943 23.3028 0.5 23.1864 0.5 23V1C0.5 0.813624 0.559943 0.697164 0.628553 0.628553C0.697164 0.559943 0.813624 0.5 1 0.5H23C23.1864 0.5 23.3028 0.559943 23.3714 0.628553C23.4401 0.697164 23.5 0.813624 23.5 1V23C23.5 23.0874 23.4513 23.2166 23.3339 23.3339C23.2166 23.4513 23.0874 23.5 23 23.5Z" stroke="#183153"/>
<path d="M18 13H6C5.4 13 5 12.6 5 12C5 11.4 5.4 11 6 11H18C18.6 11 19 11.4 19 12C19 12.5 18.5 13 18 13Z" fill="#183153"/>
<path d="M13 6V18C13 18.6 12.6 19 12 19C11.4 19 11 18.6 11 18V6C11 5.4 11.4 5 12 5C12.5 5 13 5.4 13 6Z" fill="#183153"/>
</svg>
