<svg width="24" height="24" viewBox="0 0 24 24" fill="none" xmlns="http://www.w3.org/2000/svg">
<path d="M12 1C18.1 1 23 5.9 23 12C23 18.1 18.1 23 12 23C5.9 23 1 18.1 1 12C1 5.9 6 1 12 1ZM12 0C5.4 0 0 5.4 0 12C0 18.6 5.4 24 12 24C18.6 24 24 18.6 24 12C24 5.3 18.6 0 12 0Z" fill="#183153"/>
<path d="M19.3 11.6C19.3 12.1 18.8 12.6 18.3 12.6H13.3V18C13.3 18.5 12.8 19 12.3 19C11.8 19 11.3 18.5 11.3 18V12.6H6.29999C5.79999 12.6 5.29999 12.1 5.29999 11.6C5.29999 11.1 5.79999 10.6 6.29999 10.6H11.3V6C11.3 5.4 11.8 5 12.3 5C12.8 5 13.3 5.4 13.3 6V10.6H18.3C18.8 10.6 19.3 11 19.3 11.6Z" stroke="#183153"/>
</svg>
