<svg width="24" height="24" viewBox="0 0 24 24" fill="none" xmlns="http://www.w3.org/2000/svg">
<path d="M0.5 12C0.5 5.67614 5.67614 0.5 12 0.5C18.3239 0.5 23.5 5.67614 23.5 12C23.5 18.3239 18.3239 23.5 12 23.5C5.67614 23.5 0.5 18.3239 0.5 12Z" stroke="#183153"/>
<path d="M19 12V13C19 13.6 18.6 14 18 14H14V18C14 18.6 13.6 19 13 19H12C11.4 19 11 18.6 11 18V14H6C5.4 14 5 13.6 5 13V11.9C5 11.3 5.5 10.9 6 10.9L11 11V6C11 5.4 11.4 5 12 5H13C13.6 5 14 5.4 14 6V11H18C18.6 11 19 11.5 19 12Z" stroke="#183153" stroke-miterlimit="10"/>
</svg>
