<svg xmlns="http://www.w3.org/2000/svg" fill="none" viewBox="0 0 24 24">
  <rect width="24" height="24" fill="#183153" rx="1"/>
  <path fill="#fff" d="M16.396 8.938A.85.85 0 1 0 15.23 7.7a.85.85 0 0 0 1.166 1.237Z"/>
  <path fill="#fff" fill-rule="evenodd" d="M9.114 5.042C9.861 5.008 10.098 5 12 5c1.902 0 2.14.008 2.885.042.746.034 1.255.153 1.7.325.467.176.89.452 1.24.808.357.35.631.772.807 1.24.173.445.292.954.326 1.698.034.748.042.986.042 2.887 0 1.902-.008 2.14-.042 2.886-.034.745-.153 1.254-.326 1.699-.176.467-.45.89-.807 1.24-.35.357-.773.631-1.24.807-.445.173-.954.292-1.699.326-.746.034-.984.042-2.886.042-1.902 0-2.14-.008-2.886-.042-.744-.034-1.254-.153-1.699-.326a3.435 3.435 0 0 1-1.24-.807 3.431 3.431 0 0 1-.808-1.24c-.172-.445-.29-.954-.325-1.699C5.008 14.14 5 13.902 5 12c0-1.902.008-2.14.042-2.885.034-.746.153-1.255.325-1.7.176-.468.452-.89.808-1.24.35-.356.773-.632 1.24-.808.445-.172.955-.29 1.7-.325ZM12 6.262c1.869 0 2.09.006 2.829.04.682.031 1.053.145 1.3.241.304.112.579.291.805.523.245.245.395.479.523.805.096.247.21.618.241 1.3.034.739.04.96.04 2.829 0 1.869-.006 2.09-.04 2.829-.031.682-.145 1.053-.241 1.3-.112.303-.291.579-.523.805a2.174 2.174 0 0 1-.805.523c-.247.096-.618.21-1.3.241-.739.034-.96.04-2.829.04-1.87 0-2.09-.006-2.829-.04-.682-.031-1.053-.145-1.3-.241a2.173 2.173 0 0 1-.805-.523 2.172 2.172 0 0 1-.523-.805c-.096-.247-.21-.618-.241-1.3-.034-.739-.04-.96-.04-2.829 0-1.869.006-2.09.04-2.829.031-.682.145-1.053.241-1.3.112-.304.291-.579.523-.805.245-.245.479-.396.805-.523.247-.096.618-.21 1.3-.241.739-.034.96-.04 2.829-.04Z" clip-rule="evenodd"/>
  <path fill="#fff" fill-rule="evenodd" d="M9.456 9.456a3.598 3.598 0 1 1 5.088 5.089 3.598 3.598 0 0 1-5.088-5.09Zm3.223 4.781a2.335 2.335 0 0 1-2.41-.668 2.337 2.337 0 1 1 2.41.668Z" clip-rule="evenodd"/>
</svg>
