<svg xmlns="http://www.w3.org/2000/svg" fill="none" viewBox="0 0 24 24">
  <g clip-path="url(#a)">
    <path fill="url(#b)" d="M6.086 23.915a8.083 8.083 0 0 1-2.718-.503 4.549 4.549 0 0 1-1.684-1.095 4.512 4.512 0 0 1-1.096-1.683 8.08 8.08 0 0 1-.502-2.718C.014 16.373 0 15.91 0 12c0-3.91.016-4.371.085-5.915a8.126 8.126 0 0 1 .503-2.717 4.565 4.565 0 0 1 1.095-1.685A4.52 4.52 0 0 1 3.367.588 8.08 8.08 0 0 1 6.085.085C7.63.015 8.092 0 12 0s4.371.016 5.915.085a8.126 8.126 0 0 1 2.718.503 4.531 4.531 0 0 1 1.684 1.095c.486.472.86 1.048 1.095 1.684.323.87.493 1.79.503 2.718.07 1.544.085 2.007.085 5.916 0 3.908-.014 4.37-.085 5.915a8.118 8.118 0 0 1-.503 2.718 4.848 4.848 0 0 1-2.779 2.778c-.87.323-1.79.493-2.718.503-1.543.07-2.007.085-5.915.085-3.91 0-4.372-.013-5.914-.085"/>
    <path fill="url(#c)" d="M6.086 23.915a8.083 8.083 0 0 1-2.718-.503 4.549 4.549 0 0 1-1.684-1.095 4.512 4.512 0 0 1-1.096-1.683 8.08 8.08 0 0 1-.502-2.718C.014 16.373 0 15.91 0 12c0-3.91.016-4.371.085-5.915a8.126 8.126 0 0 1 .503-2.717 4.565 4.565 0 0 1 1.095-1.685A4.52 4.52 0 0 1 3.367.588 8.08 8.08 0 0 1 6.085.085C7.63.015 8.092 0 12 0s4.371.016 5.915.085a8.126 8.126 0 0 1 2.718.503 4.531 4.531 0 0 1 1.684 1.095c.486.472.86 1.048 1.095 1.684.323.87.493 1.79.503 2.718.07 1.544.085 2.007.085 5.916 0 3.908-.014 4.37-.085 5.915a8.118 8.118 0 0 1-.503 2.718 4.848 4.848 0 0 1-2.779 2.778c-.87.323-1.79.493-2.718.503-1.543.07-2.007.085-5.915.085-3.91 0-4.372-.013-5.914-.085"/>
    <path fill="#fff" d="M9.053 12.051a2.972 2.972 0 1 1 5.944 0 2.972 2.972 0 0 1-5.944 0m-1.606 0a4.578 4.578 0 1 0 9.156 0 4.578 4.578 0 0 0-9.156 0m8.268-4.76a1.07 1.07 0 1 0 1.07-1.07 1.07 1.07 0 0 0-1.07 1.07M8.423 19.31a4.927 4.927 0 0 1-1.655-.306 2.951 2.951 0 0 1-1.693-1.692c-.196-.53-.3-1.09-.306-1.656-.043-.94-.052-1.222-.052-3.603 0-2.38.01-2.662.052-3.603a4.96 4.96 0 0 1 .306-1.656 2.95 2.95 0 0 1 1.693-1.692c.53-.197 1.09-.3 1.655-.306.94-.043 1.222-.052 3.602-.052s2.663.01 3.604.052c.565.007 1.125.11 1.656.306a2.95 2.95 0 0 1 1.692 1.692c.196.53.3 1.09.306 1.656.043.941.052 1.222.052 3.604 0 2.38-.01 2.662-.052 3.603a4.945 4.945 0 0 1-.306 1.655 2.951 2.951 0 0 1-1.692 1.692c-.53.197-1.09.3-1.656.306-.94.043-1.222.052-3.604.052-2.38 0-2.662-.009-3.602-.052M8.35 3.19a6.538 6.538 0 0 0-2.164.415A4.558 4.558 0 0 0 3.577 6.21a6.54 6.54 0 0 0-.414 2.165c-.044.95-.054 1.255-.054 3.676 0 2.421.01 2.725.054 3.676a6.54 6.54 0 0 0 .414 2.165A4.56 4.56 0 0 0 6.185 20.5c.693.26 1.425.4 2.164.415.951.043 1.255.053 3.676.053 2.422 0 2.726-.01 3.676-.053a6.54 6.54 0 0 0 2.165-.415 4.56 4.56 0 0 0 2.608-2.607c.26-.693.4-1.425.414-2.165.043-.951.053-1.255.053-3.676 0-2.421-.01-2.725-.053-3.676a6.538 6.538 0 0 0-.414-2.165 4.559 4.559 0 0 0-2.607-2.607 6.529 6.529 0 0 0-2.165-.415c-.95-.043-1.255-.053-3.675-.053-2.421 0-2.726.01-3.677.053"/>
  </g>
  <defs>
    <radialGradient id="b" cx="0" cy="0" r="1" gradientTransform="translate(1.553 23.474) scale(30.4711)" gradientUnits="userSpaceOnUse">
      <stop offset=".09" stop-color="#FA8F21"/>
      <stop offset=".78" stop-color="#D82D7E"/>
    </radialGradient>
    <radialGradient id="c" cx="0" cy="0" r="1" gradientTransform="translate(16.624 22.703) scale(26.8148)" gradientUnits="userSpaceOnUse">
      <stop offset=".64" stop-color="#8C3AAA" stop-opacity="0"/>
      <stop offset="1" stop-color="#8C3AAA"/>
    </radialGradient>
    <clipPath id="a">
      <path fill="#fff" d="M0 0h24v24H0z"/>
    </clipPath>
  </defs>
</svg>
