<svg xmlns="http://www.w3.org/2000/svg" fill="none" viewBox="0 0 20 20">
  <g clip-path="url(#a)">
    <path fill="#fff" d="M0 0h20v20H0z"/>
    <path fill="#183153" fill-rule="evenodd" d="M14.04 1.86c-1.054-.048-1.37-.058-4.04-.058s-2.986.01-4.04.058c-.976.045-1.505.207-1.858.345-.467.181-.8.397-1.15.747a3.102 3.102 0 0 0-.747 1.15c-.138.353-.3.882-.345 1.857C1.812 7.014 1.802 7.33 1.802 10c0 2.67.01 2.986.058 4.04.045.976.207 1.506.345 1.858.16.434.415.828.747 1.15.323.332.716.588 1.15.748.353.137.882.3 1.857.344 1.055.048 1.37.058 4.041.058 2.67 0 2.986-.01 4.04-.058.976-.044 1.506-.207 1.858-.345.466-.181.8-.397 1.15-.747.332-.322.588-.716.748-1.15.137-.352.3-.882.344-1.857.048-1.055.058-1.371.058-4.041 0-2.67-.01-2.986-.058-4.04-.044-.976-.207-1.505-.345-1.858a3.106 3.106 0 0 0-.747-1.15 3.102 3.102 0 0 0-1.15-.747c-.352-.138-.882-.3-1.857-.345ZM8.034 5.251a5.14 5.14 0 1 0 3.934 9.498A5.14 5.14 0 0 0 8.033 5.25Zm8.525-.02a1.215 1.215 0 1 1-2.224-.98 1.215 1.215 0 0 1 2.224.98Z" clip-rule="evenodd"/>
    <path fill="#183153" d="M8.723 13.083a3.335 3.335 0 0 0 3.636-5.442 3.336 3.336 0 1 0-3.636 5.442Z"/>
    <path fill="#183153" fill-rule="evenodd" d="M5.877.06C6.944.01 7.284 0 10 0s3.056.012 4.122.06c1.065.048 1.793.218 2.429.465a4.92 4.92 0 0 1 1.77 1.154c.51.5.903 1.103 1.153 1.77.248.636.417 1.364.466 2.427.05 1.069.06 1.409.06 4.124 0 2.716-.012 3.056-.06 4.123-.048 1.063-.218 1.79-.466 2.427a4.904 4.904 0 0 1-1.152 1.772c-.5.509-1.105.902-1.771 1.152-.636.248-1.364.417-2.427.466-1.068.05-1.408.06-4.124.06-2.716 0-3.056-.012-4.123-.06-1.063-.048-1.79-.218-2.427-.466a4.906 4.906 0 0 1-1.772-1.152A4.902 4.902 0 0 1 .525 16.55c-.247-.636-.416-1.364-.465-2.427C.01 13.055 0 12.715 0 10c0-2.716.012-3.056.06-4.122.048-1.065.218-1.793.465-2.429a4.906 4.906 0 0 1 1.154-1.77A4.902 4.902 0 0 1 3.45.524C4.085.278 4.814.109 5.877.06Zm8.164 1.8c-1.055-.048-1.371-.058-4.041-.058-2.67 0-2.986.01-4.04.058-.976.045-1.505.207-1.858.345-.467.181-.8.397-1.15.747a3.102 3.102 0 0 0-.747 1.15c-.138.353-.3.882-.345 1.857C1.812 7.014 1.802 7.33 1.802 10c0 2.67.01 2.986.058 4.04.045.976.207 1.506.345 1.858.16.434.415.828.747 1.15.323.332.716.588 1.15.748.353.137.882.3 1.857.344 1.055.048 1.37.058 4.041.058 2.67 0 2.986-.01 4.04-.058.976-.044 1.506-.207 1.858-.345.466-.181.8-.397 1.15-.747.332-.322.588-.716.748-1.15.137-.352.3-.882.344-1.857.048-1.055.058-1.371.058-4.041 0-2.67-.01-2.986-.058-4.04-.044-.976-.207-1.505-.345-1.858a3.106 3.106 0 0 0-.747-1.15 3.102 3.102 0 0 0-1.15-.747c-.352-.138-.882-.3-1.857-.345Z" clip-rule="evenodd"/>
  </g>
  <defs>
    <clipPath id="a">
      <path fill="#fff" d="M0 0h20v20H0z"/>
    </clipPath>
  </defs>
</svg>
