<svg fill="none" xmlns="http://www.w3.org/2000/svg" viewBox="0 0 20 20">
  <path d="M19.703 4.114a7.773 7.773 0 0 1-2.23.611 3.891 3.891 0 0 0 1.707-2.148 7.75 7.75 0 0 1-2.465.941A3.883 3.883 0 0 0 10.1 7.06a11.024 11.024 0 0 1-8.002-4.057A3.883 3.883 0 0 0 3.3 8.186a3.873 3.873 0 0 1-1.758-.485v.05a3.883 3.883 0 0 0 3.114 3.806 3.91 3.91 0 0 1-1.754.067A3.885 3.885 0 0 0 6.53 14.32a7.79 7.79 0 0 1-5.748 1.608 10.98 10.98 0 0 0 5.95 1.745c7.142 0 11.046-5.915 11.046-11.045 0-.167-.005-.335-.012-.502a7.892 7.892 0 0 0 1.936-2.008l.002-.003Z" fill="#183153"/>
</svg>
