<svg width="24" height="24" viewBox="0 0 24 24" fill="none" xmlns="http://www.w3.org/2000/svg">
<rect width="24" height="24" fill="white"/>
<path d="M21.456 9.90401H12.197C12.059 9.90401 11.947 10.0159 11.947 10.154V13.993C11.947 14.1311 12.059 14.243 12.197 14.243H17.2537C16.7543 16.2707 14.9114 17.742 12.197 17.742C9.09306 17.742 6.55903 15.11 6.55903 11.994C6.55903 8.87734 9.09277 6.25101 12.197 6.25101C13.5849 6.25101 14.8212 6.72308 15.8003 7.64056C15.8271 7.67867 15.8645 7.70938 15.9094 7.72798C16.0028 7.76667 16.1103 7.74528 16.1818 7.67378L18.9568 4.89878C19.0048 4.85082 19.0312 4.78542 19.03 4.7176C19.0288 4.64978 19.0001 4.58536 18.9505 4.53911C17.2022 2.90988 14.921 1.90603 12.1971 1.90601L21.456 9.90401ZM21.456 9.90401H21.457C21.5872 9.90401 21.6941 10.0035 21.7059 10.1305M21.456 9.90401L21.7059 10.1305M21.7059 10.1305C21.8291 10.7976 21.896 11.4945 21.896 12.221C21.896 15.0895 20.9353 17.5604 19.2329 19.3156C17.5296 21.0715 15.1004 22.094 12.1971 22.094L21.7059 10.1305ZM8.33379 21.3265C9.55862 21.8336 10.8714 22.0944 12.197 22.094L2.10303 12.0001C2.10264 13.3257 2.36346 14.6384 2.87057 15.8632C3.3777 17.0881 4.12121 18.201 5.05861 19.1384C5.99601 20.0758 7.10894 20.8193 8.33379 21.3265ZM2.87057 8.13677C2.36346 9.36157 2.10264 10.6743 2.10303 11.9999L12.197 1.90601C10.8714 1.90561 9.55862 2.16643 8.33379 2.67355C7.10894 3.18068 5.99601 3.92419 5.05861 4.86159C4.12121 5.79899 3.3777 6.91192 2.87057 8.13677Z" stroke="#183153" stroke-width="0.5" stroke-linejoin="round"/>
</svg>
