<svg width="24" height="24" viewBox="0 0 24 24" fill="none" xmlns="http://www.w3.org/2000/svg">
<g clip-path="url(#clip0_20_46)">
<path d="M7.06034 0.447C5.82421 0.504777 4.99414 0.700481 4.2743 0.979162L4.27116 0.980376L4.27116 0.980362C3.52196 1.26271 2.84333 1.70502 2.28256 2.27647L2.27758 2.28155L2.27754 2.2815C1.70567 2.84257 1.26299 3.52158 0.980341 4.27121L0.979176 4.2743L0.979162 4.2743C0.69977 4.99597 0.50281 5.82816 0.446617 7.07076C0.38918 8.34088 0.375 8.74229 0.375 12C0.375 15.2568 0.388096 15.658 0.446601 16.9311L7.06034 0.447ZM7.06034 0.447H7.06135L7.06997 0.446603C8.34086 0.388097 8.74201 0.375 12 0.375C15.2577 0.375 15.6591 0.38918 16.9292 0.446617C18.1718 0.50281 19.004 0.69977 19.7257 0.979174L19.7285 0.980243C20.4774 1.26326 21.1568 1.70564 21.7186 2.27767L21.7186 2.27772L21.7237 2.28269C22.2954 2.8432 22.7365 3.52117 23.0184 4.27089L23.0184 4.2709L23.0199 4.27473C23.3002 4.99594 23.4961 5.82799 23.5534 7.06885C23.5534 7.06888 23.5534 7.0689 23.5534 7.06893L23.928 7.05164M7.06034 0.447L23.5534 16.9303L23.928 16.9473M23.928 7.05164C23.9869 8.33346 24 8.74145 24 12C24 15.2596 23.9858 15.6676 23.928 16.9473M23.928 7.05164C23.8691 5.77527 23.6662 4.90255 23.3695 4.13891M23.928 7.05164L23.3695 4.13891M23.928 16.9473C23.8702 18.2236 23.6662 19.0964 23.3695 19.86M23.928 16.9473L23.5534 16.9303C23.4972 18.1707 23.3002 19.0027 23.0199 19.7242L23.0184 19.728C22.7365 20.4778 22.2945 21.1572 21.7233 21.7188L21.7233 21.7187L21.7186 21.7234C21.157 22.2953 20.4778 22.7365 19.7289 23.0185L19.7289 23.0185L19.7253 23.0199C19.004 23.3002 18.172 23.4961 16.9311 23.5534C15.6591 23.6119 15.2579 23.625 12 23.625C8.74234 23.625 8.34089 23.6108 7.0697 23.5534L23.3695 19.86M23.3695 19.86C23.0684 20.6608 22.5963 21.3864 21.9862 21.9862C21.3862 22.5971 20.6607 23.0684 19.8611 23.3695L23.3695 19.86ZM23.3695 4.13891C23.0684 3.33818 22.5971 2.61382 21.9862 2.01491C21.3862 1.404 20.6607 0.931636 19.8611 0.629455L23.3695 4.13891ZM4.27199 23.0185L4.27583 23.0199C4.99725 23.3002 5.82926 23.4972 7.06965 23.5534L4.27199 23.0185ZM4.27199 23.0185C3.52218 22.7365 2.84283 22.2945 2.28123 21.7233L2.28127 21.7232M4.27199 23.0185L2.28127 21.7232M2.28127 21.7232L2.27651 21.7186M2.28127 21.7232L2.27651 21.7186M2.27651 21.7186C1.70494 21.1575 1.26262 20.4785 0.980404 19.729L0.980419 19.729M2.27651 21.7186L0.980419 19.729M0.980419 19.729L0.979162 19.7257M0.980419 19.729L0.979162 19.7257M0.979162 19.7257C0.699842 19.0042 0.50388 18.172 0.446605 16.9311L0.979162 19.7257ZM15.0959 8.90375C14.6381 8.44622 14.0845 8.09588 13.475 7.87796C12.8655 7.66003 12.2152 7.57995 11.571 7.64348C10.9268 7.70702 10.3047 7.9126 9.74953 8.24541C9.19432 8.57823 8.71982 9.03001 8.36017 9.56822C8.00053 10.1064 7.76469 10.7177 7.66963 11.358C7.57457 11.9983 7.62266 12.6517 7.81044 13.2712C7.99822 13.8906 8.32101 14.4608 8.75558 14.9405C9.19015 15.4203 9.72569 15.7977 10.3236 16.0457C11.2597 16.4352 12.302 16.4877 13.2725 16.1943C14.2431 15.9008 15.0818 15.2794 15.6452 14.4363C16.2086 13.5931 16.4618 12.5805 16.3616 11.5714C16.2614 10.5624 15.814 9.61955 15.0959 8.90375ZM15.0959 8.90375C15.0959 8.90378 15.096 8.90381 15.096 8.90384L14.8309 9.16909L15.0956 8.90348C15.0957 8.90357 15.0958 8.90366 15.0959 8.90375ZM4.78618 2.29599L4.78597 2.29607C4.1802 2.53223 3.73595 2.8185 3.27882 3.27521C2.84229 3.70043 2.50612 4.21768 2.29479 4.78926C2.11576 5.24996 1.91261 5.92467 1.85739 7.13379C1.79917 8.40797 1.78718 8.79445 1.78718 12C1.78718 15.2056 1.79917 15.592 1.85739 16.8662C1.91261 18.0753 2.11576 18.7501 2.29479 19.2108C2.50558 19.7806 2.84119 20.2981 3.27698 20.723C3.70191 21.1588 4.21936 21.4944 4.78922 21.7052C5.24992 21.8842 5.92465 22.0874 7.1338 22.1426C8.40797 22.2008 8.79336 22.2128 12 22.2128C15.2066 22.2128 15.592 22.2008 16.8662 22.1426C18.078 22.0873 18.7531 21.8833 19.2138 21.704L19.214 21.7039C19.8198 21.4678 20.264 21.1815 20.7212 20.7248C21.1578 20.2995 21.4941 19.7814 21.7052 19.2108C21.8842 18.7501 22.0874 18.0753 22.1426 16.8662C22.2008 15.592 22.2128 15.2056 22.2128 12C22.2128 8.79445 22.2008 8.40797 22.1426 7.13379C22.0873 5.92198 21.8833 5.24695 21.704 4.78618L21.7039 4.78597C21.4678 4.1802 21.1815 3.73595 20.7248 3.27882C20.2995 2.84232 19.7823 2.50615 19.2107 2.29478C18.75 2.11576 18.0753 1.91261 16.8662 1.85739C15.592 1.79917 15.2056 1.78718 12 1.78718C8.79445 1.78718 8.40798 1.79917 7.1338 1.85739C5.92198 1.91273 5.24695 2.11667 4.78618 2.29599ZM7.90371 7.90371C8.44164 7.36578 9.08026 6.93907 9.7831 6.64794C10.4859 6.35681 11.2392 6.20697 12 6.20697C12.7608 6.20697 13.5141 6.35681 14.2169 6.64794C14.9197 6.93907 15.5584 7.36578 16.0963 7.90371C16.6342 8.44164 17.0609 9.08026 17.3521 9.7831C17.6432 10.4859 17.793 11.2392 17.793 12C17.793 12.7608 17.6432 13.5141 17.3521 14.2169C17.0609 14.9197 16.6342 15.5584 16.0963 16.0963C15.0099 17.1827 13.5364 17.793 12 17.793C10.4636 17.793 8.99011 17.1827 7.90371 16.0963C6.81731 15.0099 6.20697 13.5364 6.20697 12C6.20697 10.4636 6.81731 8.99011 7.90371 7.90371ZM19.5269 6.12602C19.4685 6.25869 19.3841 6.3783 19.2787 6.47776C19.0736 6.6712 18.8012 6.77711 18.5194 6.773C18.2375 6.76889 17.9683 6.65509 17.769 6.45575C17.5696 6.25642 17.4558 5.98724 17.4517 5.70537C17.4476 5.42349 17.5535 5.15111 17.747 4.94605C17.8464 4.84061 17.966 4.7562 18.0987 4.69781C18.2314 4.63943 18.3744 4.60825 18.5194 4.60614C18.6643 4.60403 18.8082 4.63102 18.9425 4.68551C19.0768 4.74 19.1988 4.82089 19.3013 4.92339C19.4038 5.02589 19.4847 5.14791 19.5392 5.28223C19.5937 5.41654 19.6207 5.56043 19.6186 5.70537C19.6165 5.8503 19.5853 5.99334 19.5269 6.12602Z" fill="#183153" stroke="white" stroke-width="0.75"/>
</g>
<defs>
<clipPath id="clip0_20_46">
<rect width="24" height="24" fill="white"/>
</clipPath>
</defs>
</svg>
