<svg width="24" height="24" viewBox="0 0 24 24" fill="none" xmlns="http://www.w3.org/2000/svg">
<path d="M12 0.599998C18.3 0.599998 23.4 5.7 23.4 12C23.4 18.3 18.3 23.4 12 23.4C5.7 23.4 0.599998 18.3 0.599998 12C0.599998 5.7 5.7 0.599998 12 0.599998ZM12 0C5.4 0 0 5.4 0 12C0 18.6 5.4 24 12 24C18.6 24 24 18.6 24 12C24 5.4 18.6 0 12 0Z" fill="#183153"/>
<path d="M18.1 13.5H5.9C5.4 13.5 5 13.1 5 12.6V11.4C5 10.9 5.4 10.5 5.9 10.5H18.1C18.6 10.5 19 10.9 19 11.4V12.6C19 13.1 18.6 13.5 18.1 13.5Z" stroke="#183153" stroke-width="0.6" stroke-miterlimit="10"/>
</svg>
