<svg width="26" height="26" viewBox="0 0 26 26" fill="none" xmlns="http://www.w3.org/2000/svg">
<path d="M24 25H2C1.4 25 1 24.6 1 24V2C1 1.4 1.4 1 2 1H24C24.6 1 25 1.4 25 2V24C25 24.5 24.5 25 24 25Z" stroke="#183153" stroke-width="0.5"/>
<path d="M19.1 14.75C19.7215 14.75 20.35 14.254 20.35 13.5C20.35 12.746 19.7215 12.25 19.1 12.25H7.10001C6.34597 12.25 5.85001 12.8785 5.85001 13.5C5.85001 13.8568 5.97003 14.1736 6.19823 14.4018C6.42642 14.63 6.74319 14.75 7.10001 14.75H19.1Z" stroke="#183153" stroke-width="0.5"/>
</svg>
