<svg width="22" height="22" viewBox="0 0 22 22" fill="none" xmlns="http://www.w3.org/2000/svg">
<path d="M16.6 11.3C16.6 11.8 16.2 12.3 15.8 12.3H11.5V15.7C11.5 16.2 11 16.5 10.5 16.5C9.99999 16.5 9.49999 16.1 9.49999 15.7V12.3H5.69999C5.19999 12.3 4.89999 11.8 4.89999 11.3C4.89999 10.8 5.29999 10.3 5.69999 10.3H9.49999V5.70002C9.49999 5.20002 9.99999 4.90002 10.5 4.90002C11 4.90002 11.5 5.30002 11.5 5.70002V10.3H15.7C16.2 10.3 16.6 10.8 16.6 11.3Z" stroke="#183153" stroke-width="0.5"/>
<path d="M11 21C16.5228 21 21 16.5228 21 11C21 5.47715 16.5228 1 11 1C5.47715 1 1 5.47715 1 11C1 16.5228 5.47715 21 11 21Z" stroke="#183153" stroke-width="0.5"/>
</svg>
