<svg width="26" height="26" viewBox="0 0 26 26" fill="none" xmlns="http://www.w3.org/2000/svg">
<path d="M24 25H2C1.4 25 1 24.6 1 24V2C1 1.4 1.4 1 2 1H24C24.6 1 25 1.4 25 2V24C25 24.5 24.5 25 24 25Z" stroke="#183153" stroke-width="0.5"/>
<path d="M20.2 12.9C20.2 13.5 19.7 13.9 19.2 13.9H13.8V19.1C13.8 19.7 13.4 20.1 12.8 20.1C12.3 20.1 11.8 19.7 11.8 19.1V13.9H7.20001C6.60001 13.9 6.20001 13.5 6.20001 12.9C6.20001 12.4 6.60001 11.9 7.20001 11.9H11.8V7.09998C11.8 6.59998 12.3 6.09998 12.8 6.09998C13.4 6.09998 13.8 6.59998 13.8 7.09998V11.9H19.2C19.7 11.9 20.2 12.3 20.2 12.9Z" stroke="#183153" stroke-width="0.5"/>
</svg>
