<svg width="24" height="24" viewBox="0 0 24 24" fill="none" xmlns="http://www.w3.org/2000/svg">
<path d="M20.0432 6.44766C20.4203 6.34265 20.7894 6.20885 21.147 6.04719C21.2482 6.00146 21.3674 6.02795 21.4397 6.11222C21.512 6.1965 21.5201 6.31836 21.4595 6.41141C20.9632 7.17373 20.3411 7.84591 19.62 8.39947V8.775C19.62 13.9178 15.7165 19.83 8.56 19.83M20.0432 6.44766L8.56 19.58M20.0432 6.44766C20.4778 5.99808 20.8066 5.45087 20.9983 4.84548C21.0296 4.74674 20.9968 4.63896 20.9157 4.57444C20.8347 4.50992 20.7223 4.50204 20.6331 4.55461C19.9492 4.95755 19.2063 5.24991 18.4318 5.42114C17.8931 4.86175 17.2033 4.46932 16.4449 4.29282C15.639 4.10526 14.7948 4.17063 14.0274 4.48005C13.26 4.78947 12.6066 5.32789 12.1561 6.02199C11.7069 6.71422 11.4814 7.52774 11.5099 8.35234C11.5068 8.55239 11.5211 8.75211 11.5526 8.94925C10.1887 8.83963 8.85805 8.46537 7.63546 7.84628C6.31603 7.17815 5.15198 6.23982 4.21898 5.09229C4.16705 5.02843 4.08702 4.99422 4.00498 5.00081C3.92293 5.0074 3.84939 5.05396 3.80833 5.12529C3.29718 6.01332 3.14442 7.06301 3.38125 8.05989C3.5471 8.75796 3.89522 9.39324 4.38291 9.90477C4.11867 9.83134 3.86312 9.72648 3.62192 9.59175C3.5445 9.5485 3.44995 9.54951 3.37347 9.59439C3.29698 9.63928 3.25 9.72132 3.25 9.81001V9.85958V9.86H3.47207L3.37808 10.0283C3.42054 10.052 3.46339 10.0749 3.50661 10.097L20.0432 6.44766ZM8.56 19.83V19.58M8.56 19.83C8.56018 19.83 8.56036 19.83 8.56054 19.83L8.56 19.58M8.56 19.83C6.44785 19.8345 4.38058 19.2206 2.61312 18.0642C2.51535 18.0002 2.47493 17.8771 2.51578 17.7676C2.55663 17.6581 2.66786 17.5916 2.78364 17.6073C3.07126 17.6463 3.36138 17.664 3.65161 17.66L3.65569 17.66L3.65569 17.66C5.09198 17.664 6.4932 17.2485 7.69026 16.4718M8.56 19.58C6.68503 19.5841 4.84625 19.0894 3.23052 18.1514C3.0586 18.1421 2.88708 18.1259 2.71636 18.1027L2.75 17.855L2.88688 17.6458C3.02401 17.7355 3.16304 17.8218 3.30384 17.9047C3.42078 17.9098 3.53788 17.9116 3.655 17.91C5.23466 17.9143 6.7733 17.4281 8.06046 16.5234C7.93605 16.5119 7.81253 16.4947 7.69026 16.4718M7.69026 16.4718C7.7925 16.4055 7.89325 16.3365 7.9924 16.2649L5.98806 13.6939C5.83661 13.6425 5.6887 13.5823 5.54505 13.5136C5.54494 13.5136 5.54483 13.5135 5.54473 13.5135C5.51439 13.499 5.48424 13.4841 5.45428 13.4688C5.26019 13.4636 5.06691 13.4407 4.87685 13.4004C4.7899 13.382 4.69971 13.4111 4.63995 13.4769C4.58019 13.5427 4.55985 13.6353 4.58653 13.72C4.84085 14.5283 5.34346 15.2358 6.02291 15.742C6.51818 16.1111 7.08904 16.3594 7.69026 16.4718ZM3.5 9.81001L3.47212 9.85991L3.5 9.81001Z" stroke="#183153" stroke-width="0.5" stroke-linecap="round" stroke-linejoin="round"/>
</svg>
