<svg width="20" height="20" viewBox="0 0 20 20" fill="none" xmlns="http://www.w3.org/2000/svg">
<path fill-rule="evenodd" clip-rule="evenodd" d="M20 10C20 15.5228 15.5228 20 10 20C4.47715 20 0 15.5228 0 10C0 4.47715 4.47715 0 10 0C15.5228 0 20 4.47715 20 10ZM15 11.3H11.3V15C11.3 15.5 10.9 15.8 10.5 15.8H9.7C9.2 15.8 8.9 15.4 8.9 15V11.3H5C4.5 11.3 4.2 10.9 4.2 10.5V9.7C4.2 9.2 4.6 8.9 5 8.9H8.9V5C8.9 4.5 9.3 4.2 9.7 4.2H10.5C10.9 4.2 11.3 4.6 11.3 5V8.9H15C15.5 8.9 15.8 9.3 15.8 9.7V10.5C15.9 10.9 15.5 11.3 15 11.3Z" fill="#183153"/>
</svg>
