<svg width="24" height="24" viewBox="0 0 24 24" fill="none" xmlns="http://www.w3.org/2000/svg">
<rect width="24" height="24" rx="12" fill="#183153"/>
<path d="M19.2535 10.9676C19.3453 11.4593 19.3953 11.9734 19.3953 12.5099C19.3953 16.7062 16.5868 19.69 12.345 19.69C11.3804 19.6903 10.4251 19.5005 9.53384 19.1315C8.64257 18.7625 7.83275 18.2215 7.15064 17.5394C6.46854 16.8572 5.92752 16.0474 5.55851 15.1562C5.18949 14.2649 4.99971 13.3096 5 12.345C4.99971 11.3804 5.18949 10.4251 5.55851 9.53384C5.92752 8.64257 6.46854 7.83275 7.15064 7.15064C7.83275 6.46854 8.64257 5.92752 9.53384 5.55851C10.4251 5.18949 11.3804 4.99971 12.345 5C14.3282 5 15.9854 5.72973 17.2568 6.9146L15.1863 8.98513V8.97991C14.4155 8.24571 13.4373 7.86891 12.345 7.86891C9.92154 7.86891 7.95173 9.91632 7.95173 12.3405C7.95173 14.764 9.92154 16.8159 12.345 16.8159C14.5439 16.8159 16.0406 15.5586 16.348 13.8321H12.345V10.9676H19.2543H19.2535Z" fill="white"/>
</svg>
