<svg width="20" height="20" viewBox="0 0 20 20" fill="none" xmlns="http://www.w3.org/2000/svg">
<rect width="20" height="20" fill="white"/>
<path d="M17.88 8.46166C17.9825 9.01083 18.0383 9.58499 18.0383 10.1842C18.0383 14.8708 14.9017 18.2033 10.1642 18.2033C9.08681 18.2037 8.01993 17.9917 7.02451 17.5796C6.02909 17.1674 5.12463 16.5632 4.36281 15.8014C3.601 15.0395 2.99676 14.1351 2.58462 13.1397C2.17248 12.1442 1.96052 11.0774 1.96085 10C1.96052 8.92263 2.17248 7.85575 2.58462 6.86033C2.99676 5.8649 3.601 4.96045 4.36281 4.19863C5.12463 3.43681 6.02909 2.83257 7.02451 2.42043C8.01993 2.00829 9.08681 1.79633 10.1642 1.79666C12.3792 1.79666 14.23 2.61166 15.65 3.935L13.3375 6.2475V6.24166C12.4767 5.42166 11.3842 5.00083 10.1642 5.00083C7.45751 5.00083 5.25751 7.2875 5.25751 9.995C5.25751 12.7017 7.45751 14.9933 10.1642 14.9933C12.62 14.9933 14.2917 13.5892 14.635 11.6608H10.1642V8.46166H17.8808H17.88Z" fill="#183153"/>
</svg>
