<svg width="24" height="24" viewBox="0 0 24 24" fill="none" xmlns="http://www.w3.org/2000/svg">
<path d="M22.3 0H2.29999C1.19999 0 0 0.6 0 1.7V21.7C0 22.8 1.19999 24 2.29999 24H22.3C23.4 24 24 22.8 24 21.7V1.7C24 0.6 23.4 0 22.3 0ZM18.3 14H6.29999C5.19999 14 4.29999 13 4.29999 11.8C4.29999 11.3 4.49999 10.8 4.89999 10.5C5.29999 10.1 5.79999 10 6.29999 10H18.3C19.4 10 20.3 10.9 20.3 12C20.3 13.1 19.4 14 18.3 14Z" fill="#CFCFCF"/>
<path d="M20.3 12C20.3 13.1 19.4 14 18.3 14H6.29999C5.19999 14 4.29999 13 4.29999 11.8C4.29999 11.3 4.49999 10.8 4.89999 10.5C5.29999 10.1 5.79999 10 6.29999 10H18.3C19.4 10 20.3 10.9 20.3 12Z" fill="#FF0E46"/>
</svg>
