<svg width="26" height="26" viewBox="0 0 26 26" fill="none" xmlns="http://www.w3.org/2000/svg">
<path d="M13 1C6.4 1 1 6.4 1 13C1 19.6 6.4 25 13 25C19.6 25 25 19.6 25 13C25 6.4 19.6 1 13 1Z" stroke="#183153" stroke-width="0.5" stroke-miterlimit="10"/>
<path d="M20 13V14C20 14.6 19.6 15 19 15H15V19C15 19.6 14.6 20 14 20H13C12.4 20 12 19.6 12 19V15H7C6.4 15 6 14.6 6 14V12.9C6 12.3 6.5 11.9 7 11.9L12 12V7C12 6.4 12.4 6 13 6H14C14.6 6 15 6.4 15 7V12H19C19.6 12 20 12.5 20 13Z" stroke="#183153" stroke-width="0.5" stroke-miterlimit="10"/>
</svg>
