<svg width="20" height="20" viewBox="0 0 20 20" fill="none" xmlns="http://www.w3.org/2000/svg">
<path fill-rule="evenodd" clip-rule="evenodd" d="M10 20C15.5228 20 20 15.5228 20 10C20 4.47715 15.5228 0 10 0C4.47715 0 0 4.47715 0 10C0 15.5228 4.47715 20 10 20ZM9 9.09998V4.89997C9 4.49997 9.5 4.09998 10 4.09998C10.5 4.09998 11 4.49997 11 4.89997V9.09998H15C15.4 9.09998 15.8 9.59998 15.8 10.1C15.8 10.6 15.4 11.1 15 11.1H11V14.9C11 15.4 10.5 15.7 10 15.7C9.5 15.7 9 15.3 9 14.9V11.1H5.00002C4.50002 11.1 4.20001 10.6 4.20001 10.1C4.20001 9.59998 4.60002 9.09998 5.00002 9.09998H9Z" fill="#183153"/>
</svg>
