<svg width="20" height="20" viewBox="0 0 20 20" fill="none" xmlns="http://www.w3.org/2000/svg">
<path d="M16.6667 8.33333H11.6667V3.33333C11.6667 2.83333 11.3333 2.5 10.8333 2.5H9.16667C8.66667 2.5 8.33333 2.83333 8.33333 3.33333V8.33333H3.33333C2.83333 8.33333 2.5 8.66667 2.5 9.16667V10.8333C2.5 11.3333 2.83333 11.6667 3.33333 11.6667H8.33333V16.6667C8.33333 17.1667 8.66667 17.5 9.16667 17.5H10.8333C11.3333 17.5 11.6667 17.1667 11.6667 16.6667V11.6667H16.6667C17.1667 11.6667 17.5 11.3333 17.5 10.8333V9.16667C17.5 8.66667 17.1667 8.33333 16.6667 8.33333Z" fill="#183153"/>
</svg>
