<svg width="24" height="24" viewBox="0 0 24 24" fill="none" xmlns="http://www.w3.org/2000/svg">
<path d="M21.2707 5.52526C21.4774 5.53104 21.6781 5.62215 21.8192 5.78666C22.0361 6.03948 22.0603 6.40507 21.8785 6.68423C21.3967 7.42428 20.8033 8.08436 20.12 8.64138V8.775C20.12 14.1333 16.0497 20.3296 8.56081 20.33M21.2707 5.52526L8.56 19.58M21.2707 5.52526C21.3493 5.35418 21.4176 5.17762 21.475 4.99642C21.5688 4.70022 21.4703 4.37686 21.2272 4.18331C20.9842 3.98976 20.647 3.96611 20.3793 4.12383C19.8173 4.45495 19.2126 4.7061 18.5827 4.87056C18.012 4.34985 17.3155 3.98209 16.5582 3.80583C15.6522 3.59497 14.7032 3.66847 13.8404 4.01632C12.9777 4.36418 12.2431 4.96948 11.7367 5.74981C11.234 6.52453 10.9804 7.43438 11.0098 8.35713C11.0097 8.36702 11.0096 8.37691 11.0096 8.3868C9.91496 8.23407 8.85099 7.90135 7.86134 7.40021C6.6045 6.76377 5.49567 5.86996 4.60693 4.77687C4.45116 4.58528 4.21106 4.48264 3.96493 4.50242C3.7188 4.52219 3.49817 4.66185 3.37499 4.87586C2.80027 5.87434 2.6285 7.05459 2.89479 8.17546C2.97212 8.50096 3.0847 8.81431 3.22909 9.11063C3.19185 9.12506 3.15549 9.14257 3.12041 9.16316C2.89095 9.29782 2.75 9.54395 2.75 9.81001L2.75 9.85877L2.75 9.86H3.47207L3.13424 10.4648C3.28167 10.5471 3.43326 10.6208 3.58823 10.6856C3.71502 11.2624 3.9759 11.8054 4.3545 12.2686C4.55761 12.517 4.79 12.7369 5.04517 12.9242C5.02358 12.9202 5.00203 12.9159 4.98054 12.9113C4.7197 12.856 4.44912 12.9434 4.26985 13.1407C4.24973 13.1629 4.23111 13.186 4.21401 13.21M21.2707 5.52526L3.77382 12.7432C3.91002 12.9099 4.0572 13.0657 4.21401 13.21M8.56081 20.33C8.56054 20.33 8.56027 20.33 8.56 20.33V19.58M8.56081 20.33C8.56108 20.33 8.56135 20.33 8.56162 20.33L8.56 19.58M8.56081 20.33C6.35114 20.3346 4.18843 19.6924 2.33937 18.4826C2.04605 18.2907 1.92478 17.9212 2.04733 17.5928C2.16989 17.2644 2.50357 17.0647 2.85091 17.1118C3.11399 17.1475 3.37936 17.1637 3.64483 17.1601L3.65706 17.1599L3.65706 17.16C4.62143 17.1627 5.56884 16.9625 6.4404 16.5798M8.56 19.58C7.04671 19.5833 5.557 19.2617 4.1891 18.6443C4.01305 18.6551 3.83629 18.6604 3.65905 18.66C3.32133 18.6643 2.98376 18.6436 2.64909 18.5982L2.75 17.855L3.16063 17.2274C3.32105 17.3324 3.48418 17.4324 3.64981 17.5274C3.65189 17.5286 3.65396 17.5298 3.65604 17.531C3.87578 17.6569 4.09989 17.774 4.32784 17.8821C5.41733 17.7887 6.47234 17.462 7.42166 16.9266C7.08246 16.8491 6.75317 16.7327 6.4404 16.5798M6.4404 16.5798C6.74027 16.4481 7.03116 16.2948 7.31067 16.1207C6.90356 15.9944 6.51826 15.7994 6.17228 15.5416C5.77468 15.2453 5.44165 14.8756 5.18945 14.4553C5.0148 14.4407 4.84114 14.4151 4.66946 14.3787L4.81794 13.6783C4.80722 13.6714 4.79654 13.6644 4.78588 13.6573C4.58409 13.5241 4.39279 13.3746 4.21401 13.21M6.4404 16.5798C6.18993 16.4573 5.95006 16.3113 5.72418 16.143C4.96043 15.5739 4.39546 14.7786 4.10958 13.8701C4.03853 13.6443 4.07865 13.4001 4.21401 13.21M5.65196 13.7185C5.95379 13.71 6.25363 13.6652 6.545 13.585L4.825 13.645L5.54042 13.4199C5.54181 13.4243 5.54321 13.4287 5.54462 13.4331C5.54477 13.4336 5.54492 13.4341 5.54506 13.4345C5.57603 13.5312 5.61174 13.626 5.65196 13.7185ZM3.6521 9.81001H3.5L3.47212 9.85991L3.6521 9.81001Z" stroke="#183153" stroke-width="1.5" stroke-linecap="round" stroke-linejoin="round"/>
</svg>
