<svg width="24" height="24" viewBox="0 0 24 24" fill="none" xmlns="http://www.w3.org/2000/svg">
<rect width="24" height="24" rx="1" fill="#183153"/>
<path d="M19.0971 7.35937C18.5786 7.58908 18.0217 7.74429 17.4363 7.81445C18.0404 7.45298 18.4923 6.88408 18.7078 6.21389C18.1402 6.55101 17.5191 6.7883 16.8713 6.91546C16.4357 6.45036 15.8587 6.14208 15.23 6.03849C14.6012 5.9349 13.9558 6.04179 13.3941 6.34257C12.8323 6.64335 12.3855 7.12118 12.1231 7.70189C11.8607 8.2826 11.7974 8.93369 11.943 9.55407C10.793 9.49633 9.66795 9.19743 8.64094 8.67675C7.61392 8.15608 6.70786 7.42528 5.98157 6.53177C5.73323 6.96016 5.59043 7.45684 5.59043 7.9858C5.59015 8.46199 5.70742 8.93089 5.93182 9.35089C6.15623 9.77089 6.48083 10.129 6.87683 10.3935C6.41758 10.3789 5.96845 10.2548 5.56684 10.0315V10.0688C5.56679 10.7366 5.79781 11.384 6.22071 11.9009C6.6436 12.4178 7.23232 12.7725 7.88696 12.9048C7.46092 13.0201 7.01425 13.0371 6.58069 12.9545C6.76539 13.5291 7.12517 14.0317 7.60967 14.3917C8.09416 14.7517 8.67911 14.9512 9.28263 14.9623C8.25812 15.7666 6.99286 16.2028 5.69039 16.2009C5.45967 16.201 5.22914 16.1875 5 16.1606C6.32209 17.0106 7.86109 17.4617 9.43288 17.46C14.7536 17.46 17.6623 13.0532 17.6623 9.23123C17.6623 9.10706 17.6592 8.98165 17.6536 8.85748C18.2193 8.44832 18.7077 7.94166 19.0958 7.36123L19.0971 7.35937V7.35937Z" fill="white"/>
</svg>
