<svg width="24" height="24" viewBox="0 0 24 24" fill="none" xmlns="http://www.w3.org/2000/svg">
<rect width="24" height="24" rx="1" fill="#183153"/>
<path d="M16.396 8.93782C16.4788 8.85972 16.5451 8.7658 16.5909 8.66162C16.6368 8.55744 16.6612 8.44513 16.6629 8.33132C16.6646 8.21751 16.6434 8.10453 16.6006 7.99906C16.5578 7.89359 16.4943 7.79778 16.4138 7.7173C16.3333 7.63682 16.2375 7.5733 16.132 7.53051C16.0266 7.48772 15.9136 7.46653 15.7998 7.46819C15.686 7.46985 15.5736 7.49433 15.4695 7.54017C15.3653 7.58602 15.2714 7.6523 15.1933 7.73509C15.0414 7.89611 14.9582 8.10999 14.9614 8.33132C14.9647 8.55265 15.054 8.76401 15.2106 8.92054C15.3671 9.07706 15.5784 9.16642 15.7998 9.16964C16.0211 9.17287 16.235 9.08971 16.396 8.93782Z" fill="white"/>
<path fill-rule="evenodd" clip-rule="evenodd" d="M9.11409 5.042C9.86055 5.00764 10.0985 5 12 5C13.9015 5 14.1395 5.00827 14.8853 5.042C15.6311 5.07573 16.1402 5.19473 16.5856 5.36718C17.0521 5.54345 17.4753 5.819 17.8253 6.17536C18.1816 6.52473 18.4565 6.94727 18.6322 7.41436C18.8053 7.85982 18.9236 8.36891 18.958 9.11345C18.9924 9.86118 19 10.0992 19 12C19 13.9015 18.9917 14.1395 18.958 14.8859C18.9243 15.6305 18.8053 16.1395 18.6322 16.585C18.4565 17.0522 18.1812 17.4754 17.8253 17.8253C17.4753 18.1816 17.0521 18.4565 16.5856 18.6322C16.1402 18.8053 15.6311 18.9236 14.8865 18.958C14.1395 18.9924 13.9015 19 12 19C10.0985 19 9.86055 18.9917 9.11409 18.958C8.36955 18.9243 7.86045 18.8053 7.415 18.6322C6.94786 18.4565 6.52461 18.1812 6.17473 17.8253C5.81861 17.4757 5.54302 17.0527 5.36718 16.5856C5.19473 16.1402 5.07636 15.6311 5.042 14.8865C5.00764 14.1388 5 13.9008 5 12C5 10.0985 5.00827 9.86055 5.042 9.11473C5.07573 8.36891 5.19473 7.85982 5.36718 7.41436C5.54328 6.94732 5.81908 6.52429 6.17536 6.17473C6.52475 5.81868 6.94757 5.5431 7.41436 5.36718C7.85982 5.19473 8.36955 5.07636 9.11409 5.042ZM12 6.26127C13.869 6.26127 14.0905 6.26827 14.8286 6.302C15.5115 6.33318 15.8818 6.44709 16.1287 6.54318C16.4327 6.65532 16.7078 6.83405 16.9337 7.06627C17.1787 7.31127 17.3295 7.54482 17.4568 7.87127C17.5529 8.11818 17.6668 8.48855 17.698 9.17136C17.7317 9.90955 17.7387 10.131 17.7387 12C17.7387 13.869 17.7317 14.0905 17.698 14.8286C17.6668 15.5115 17.5529 15.8818 17.4568 16.1287C17.3448 16.4323 17.166 16.7078 16.9337 16.9337C16.6887 17.1787 16.4552 17.3295 16.1287 17.4568C15.8818 17.5529 15.5115 17.6668 14.8286 17.698C14.0905 17.7317 13.8696 17.7387 12 17.7387C10.1304 17.7387 9.90955 17.7317 9.17136 17.698C8.48855 17.6668 8.11818 17.5529 7.87127 17.4568C7.56773 17.3448 7.29218 17.166 7.06627 16.9337C6.834 16.7078 6.65518 16.4323 6.54318 16.1287C6.44709 15.8818 6.33318 15.5115 6.302 14.8286C6.26827 14.0905 6.26127 13.869 6.26127 12C6.26127 10.131 6.26827 9.90955 6.302 9.17136C6.33318 8.48855 6.44709 8.11818 6.54318 7.87127C6.6553 7.56727 6.83403 7.29221 7.06627 7.06627C7.31127 6.82127 7.54482 6.67045 7.87127 6.54318C8.11818 6.44709 8.48855 6.33318 9.17136 6.302C9.90955 6.26827 10.131 6.26127 12 6.26127Z" fill="white"/>
<path fill-rule="evenodd" clip-rule="evenodd" d="M9.45582 9.45582C9.78993 9.12171 10.1866 8.85668 10.6231 8.67587C11.0596 8.49505 11.5275 8.40198 12 8.40198C12.4725 8.40198 12.9404 8.49505 13.3769 8.67587C13.8134 8.85668 14.2101 9.12171 14.5442 9.45582C14.8783 9.78993 15.1433 10.1866 15.3241 10.6231C15.505 11.0596 15.598 11.5275 15.598 12C15.598 12.4725 15.505 12.9404 15.3241 13.3769C15.1433 13.8134 14.8783 14.2101 14.5442 14.5442C13.8694 15.2189 12.9543 15.598 12 15.598C11.0457 15.598 10.1306 15.2189 9.45582 14.5442C8.78106 13.8694 8.40198 12.9543 8.40198 12C8.40198 11.0457 8.78106 10.1306 9.45582 9.45582ZM12.679 14.2373C12.1612 14.3938 11.6052 14.3658 11.1059 14.1579C10.787 14.0257 10.5013 13.8243 10.2695 13.5685C10.0378 13.3126 9.86559 13.0085 9.76543 12.6781C9.66528 12.3476 9.63963 11.9991 9.69033 11.6576C9.74103 11.3161 9.86682 10.9901 10.0586 10.703C10.2505 10.4159 10.5036 10.175 10.7997 9.99745C11.0958 9.81993 11.4276 9.71028 11.7712 9.67639C12.1148 9.6425 12.4617 9.68522 12.7868 9.80146C13.1119 9.9177 13.4072 10.1046 13.6514 10.3486C14.0345 10.7304 14.2731 11.2334 14.3266 11.7716C14.38 12.3098 14.245 12.8499 13.9445 13.2996C13.644 13.7493 13.1967 14.0807 12.679 14.2373Z" fill="white"/>
</svg>
