<svg width="24" height="24" viewBox="0 0 24 24" fill="none" xmlns="http://www.w3.org/2000/svg">
<path fill-rule="evenodd" clip-rule="evenodd" d="M1 24H23C23.6 24 24 23.5 24 23V1C24 0.4 23.6 0 23 0H1C0.4 0 0 0.4 0 1V23C0 23.6 0.4 24 1 24ZM13.7 10.3H18.7C19.2 10.3 19.5 10.7 19.5 11.1V12.8C19.5 13.2 19.2 13.6 18.7 13.6H13.7V18.6C13.7 19 13.4 19.4 12.9 19.4H11.2C10.8 19.4 10.4 19.1 10.4 18.6V13.6H5.40001C5.00001 13.6 4.60001 13.3 4.60001 12.8V11.1C4.60001 10.7 4.90001 10.3 5.40001 10.3H10.4V5.3C10.4 4.9 10.7 4.5 11.2 4.5H12.9C13.3 4.5 13.7 4.8 13.7 5.3V10.3Z" fill="#183153"/>
</svg>
