<svg width="24" height="24" viewBox="0 0 24 24" fill="none" xmlns="http://www.w3.org/2000/svg">
<g clip-path="url(#clip0_65_39)">
<path d="M6.08588 23.9151C5.15758 23.9047 4.23801 23.7344 3.36753 23.4118C2.73187 23.1768 2.15676 22.8027 1.68424 22.3169C1.19712 21.8454 0.822514 21.2701 0.588235 20.6339C0.265824 19.7634 0.0958076 18.8439 0.0856471 17.9158C0.0143529 16.3727 0 15.9099 0 12C0 8.09012 0.0157647 7.62894 0.0849412 6.08471C0.0963347 5.15689 0.266561 4.23788 0.588235 3.36753C0.823654 2.73176 1.19773 2.15642 1.68329 1.68329C2.15523 1.19662 2.73061 0.822358 3.36682 0.588235C4.2373 0.265557 5.15687 0.0953008 6.08518 0.0849412C7.62871 0.0143529 8.09224 0 12 0C15.9078 0 16.3711 0.0157647 17.9153 0.0849412C18.8434 0.0962542 19.7626 0.266481 20.6332 0.588235C21.2691 0.822667 21.8443 1.1968 22.3165 1.68306C22.8029 2.15535 23.1772 2.73073 23.4118 3.36682C23.7345 4.23729 23.9049 5.15686 23.9153 6.08518C23.9859 7.62941 24.0002 8.09177 24.0002 12.0005C24.0002 15.9092 23.9859 16.3715 23.9153 17.9158C23.9041 18.8439 23.7338 19.7633 23.4118 20.6339C23.1682 21.2652 22.7951 21.8386 22.3166 22.317C21.838 22.7954 21.2646 23.1683 20.6332 23.4118C19.7627 23.7345 18.8431 23.9049 17.9148 23.9153C16.372 23.9859 15.9082 24.0002 11.9995 24.0002C8.09082 24.0002 7.62847 23.9866 6.08565 23.9153" fill="url(#paint0_radial_65_39)"/>
<path d="M6.08588 23.9151C5.15758 23.9047 4.23801 23.7344 3.36753 23.4118C2.73187 23.1768 2.15676 22.8027 1.68424 22.3169C1.19712 21.8454 0.822514 21.2701 0.588235 20.6339C0.265824 19.7634 0.0958076 18.8439 0.0856471 17.9158C0.0143529 16.3727 0 15.9099 0 12C0 8.09012 0.0157647 7.62894 0.0849412 6.08471C0.0963347 5.15689 0.266561 4.23788 0.588235 3.36753C0.823654 2.73176 1.19773 2.15642 1.68329 1.68329C2.15523 1.19662 2.73061 0.822358 3.36682 0.588235C4.2373 0.265557 5.15687 0.0953008 6.08518 0.0849412C7.62871 0.0143529 8.09224 0 12 0C15.9078 0 16.3711 0.0157647 17.9153 0.0849412C18.8434 0.0962542 19.7626 0.266481 20.6332 0.588235C21.2691 0.822667 21.8443 1.1968 22.3165 1.68306C22.8029 2.15535 23.1772 2.73073 23.4118 3.36682C23.7345 4.23729 23.9049 5.15686 23.9153 6.08518C23.9859 7.62941 24.0002 8.09177 24.0002 12.0005C24.0002 15.9092 23.9859 16.3715 23.9153 17.9158C23.9041 18.8439 23.7338 19.7633 23.4118 20.6339C23.1682 21.2652 22.7951 21.8386 22.3166 22.317C21.838 22.7954 21.2646 23.1683 20.6332 23.4118C19.7627 23.7345 18.8431 23.9049 17.9148 23.9153C16.372 23.9859 15.9082 24.0002 11.9995 24.0002C8.09082 24.0002 7.62847 23.9866 6.08565 23.9153" fill="url(#paint1_radial_65_39)"/>
<path d="M9.05342 12.0511C9.05347 11.4632 9.22782 10.8886 9.55444 10.3999C9.88106 9.9112 10.3453 9.5303 10.8884 9.30541C11.4314 9.08051 12.029 9.02172 12.6055 9.13646C13.1821 9.2512 13.7116 9.53432 14.1272 9.95002C14.5428 10.3657 14.8258 10.8953 14.9404 11.4719C15.055 12.0484 14.9961 12.646 14.771 13.189C14.546 13.732 14.165 14.1962 13.6762 14.5227C13.1874 14.8492 12.6128 15.0234 12.0249 15.0233C11.2368 15.0232 10.4809 14.71 9.92364 14.1526C9.36638 13.5952 9.05336 12.8392 9.05342 12.0511ZM7.44659 12.0511C7.44659 12.9566 7.71511 13.8418 8.21819 14.5947C8.72126 15.3476 9.4363 15.9344 10.2729 16.2809C11.1095 16.6274 12.03 16.7181 12.9181 16.5414C13.8063 16.3648 14.622 15.9287 15.2623 15.2884C15.9026 14.6481 16.3387 13.8324 16.5153 12.9443C16.692 12.0561 16.6013 11.1356 16.2548 10.299C15.9083 9.46241 15.3214 8.74737 14.5685 8.24429C13.8156 7.74122 12.9305 7.4727 12.0249 7.4727C11.4237 7.47267 10.8283 7.59107 10.2729 7.82115C9.71737 8.05122 9.21264 8.38845 8.78749 8.8136C8.36235 9.23875 8.02511 9.74347 7.79504 10.299C7.56497 10.8544 7.44656 11.4498 7.44659 12.0511ZM15.7146 7.29129C15.7145 7.50289 15.7772 7.70977 15.8946 7.88577C16.0121 8.06176 16.1792 8.19896 16.3746 8.28002C16.5701 8.36109 16.7852 8.38237 16.9927 8.34118C17.2003 8.29999 17.391 8.19817 17.5407 8.04861C17.6904 7.89905 17.7923 7.70847 17.8337 7.50095C17.8751 7.29343 17.854 7.0783 17.7731 6.88277C17.6922 6.68724 17.5552 6.52009 17.3793 6.40245C17.2034 6.28482 16.9965 6.22198 16.7849 6.22188C16.5013 6.22201 16.2293 6.3347 16.0287 6.53522C15.8281 6.73573 15.7153 7.00766 15.7151 7.29129M8.4233 19.3087C7.85792 19.3025 7.29782 19.199 6.76753 19.0028C6.38296 18.8546 6.03369 18.6275 5.7422 18.3361C5.45071 18.0447 5.22345 17.6956 5.07506 17.3111C4.87877 16.7808 4.7753 16.2207 4.76918 15.6553C4.72589 14.7155 4.71742 14.4332 4.71742 12.0522C4.71742 9.67129 4.72683 9.38965 4.76918 8.44894C4.77604 7.88362 4.87949 7.32363 5.07506 6.79317C5.22328 6.40848 5.45047 6.05912 5.74198 5.76762C6.03348 5.47611 6.38284 5.24892 6.76753 5.1007C7.29779 4.90442 7.85791 4.80095 8.4233 4.79482C9.36306 4.75153 9.64542 4.74306 12.0254 4.74306C14.4054 4.74306 14.688 4.75224 15.6287 4.79506C16.194 4.80192 16.754 4.90537 17.2845 5.10094C17.6692 5.24917 18.0185 5.47636 18.31 5.76787C18.6015 6.05937 18.8287 6.40873 18.9769 6.79341C19.1732 7.32367 19.2767 7.88379 19.2828 8.44918C19.3261 9.39035 19.3346 9.67129 19.3346 12.0525C19.3346 14.4336 19.3259 14.7151 19.2828 15.6558C19.2762 16.2211 19.1728 16.7811 18.9769 17.3115C18.8286 17.696 18.6013 18.0452 18.3098 18.3366C18.0183 18.628 17.669 18.8551 17.2845 19.0033C16.7542 19.1996 16.1941 19.303 15.6287 19.3092C14.6889 19.3525 14.4066 19.3609 12.0254 19.3609C9.64424 19.3609 9.36283 19.3522 8.4233 19.3092M8.34942 3.18941C7.60961 3.20396 6.87765 3.34398 6.18471 3.60352C5.59236 3.83255 5.0544 4.18284 4.60533 4.63191C4.15625 5.08098 3.80597 5.61894 3.57694 6.21129C3.31744 6.90424 3.17741 7.6362 3.16283 8.376C3.11883 9.32659 3.10895 9.63058 3.10895 12.052C3.10895 14.4734 3.11907 14.7772 3.16283 15.728C3.17741 16.4678 3.31743 17.1998 3.57694 17.8927C3.80598 18.485 4.15627 19.023 4.60534 19.4721C5.05442 19.9211 5.59237 20.2714 6.18471 20.5005C6.87768 20.7599 7.60963 20.8999 8.34942 20.9146C9.30048 20.9579 9.604 20.9685 12.0254 20.9685C14.4468 20.9685 14.7506 20.9584 15.7014 20.9146C16.4412 20.9 17.1732 20.76 17.8661 20.5005C18.4585 20.2714 18.9964 19.9211 19.4455 19.4721C19.8946 19.023 20.2448 18.485 20.4739 17.8927C20.7337 17.1999 20.8738 16.4678 20.888 15.728C20.9313 14.7767 20.9412 14.4734 20.9412 12.052C20.9412 9.63058 20.9311 9.32682 20.888 8.376C20.8735 7.6362 20.7334 6.90423 20.4739 6.21129C20.2449 5.61905 19.8947 5.08118 19.4457 4.63212C18.9968 4.18306 18.459 3.83271 17.8668 3.60352C17.1739 3.34381 16.4419 3.20378 15.7021 3.18941C14.7513 3.14588 14.4475 3.13553 12.0266 3.13553C9.60565 3.13553 9.30118 3.14565 8.34989 3.18941" fill="white"/>
</g>
<defs>
<radialGradient id="paint0_radial_65_39" cx="0" cy="0" r="1" gradientUnits="userSpaceOnUse" gradientTransform="translate(1.55318 23.4744) scale(30.4711)">
<stop offset="0.09" stop-color="#FA8F21"/>
<stop offset="0.78" stop-color="#D82D7E"/>
</radialGradient>
<radialGradient id="paint1_radial_65_39" cx="0" cy="0" r="1" gradientUnits="userSpaceOnUse" gradientTransform="translate(16.624 22.7035) scale(26.8148)">
<stop offset="0.64" stop-color="#8C3AAA" stop-opacity="0"/>
<stop offset="1" stop-color="#8C3AAA"/>
</radialGradient>
<clipPath id="clip0_65_39">
<rect width="24" height="24" fill="white"/>
</clipPath>
</defs>
</svg>
