<svg width="24" height="24" viewBox="0 0 24 24" fill="none" xmlns="http://www.w3.org/2000/svg">
<path d="M23 24H1C0.4 24 0 23.6 0 23V1C0 0.4 0.4 0 1 0H23C23.6 0 24 0.4 24 1V23C24 23.6 23.6 24 23 24Z" fill="#CFCFCF"/>
<path d="M18 11.2H13.1V5.90002C13.1 5.40002 12.7 4.90002 12.1 4.90002C11.6 4.90002 11.1 5.40002 11.1 5.90002V11.2H6C5.4 11.2 5 11.7 5 12.2C5 12.8 5.4 13.2 6 13.2H11.1V17.9C11.1 18.5 11.6 18.9 12.1 18.9C12.7 18.9 13.1 18.5 13.1 17.9V13.2H18C18.5 13.2 19 12.8 19 12.2C19 11.6 18.5 11.2 18 11.2Z" fill="#FF0E46"/>
</svg>
