<svg width="24" height="24" viewBox="0 0 24 24" fill="none" xmlns="http://www.w3.org/2000/svg">
<path d="M23 24H1C0.4 24 0 23.6 0 23V1C0 0.4 0.4 0 1 0H23C23.6 0 24 0.4 24 1V23C24 23.5 23.6 24 23 24Z" fill="#CFCFCF"/>
<path d="M18.7 10.3H13.7V5.3C13.7 4.8 13.3 4.5 12.9 4.5H11.2C10.7 4.5 10.4 4.9 10.4 5.3V10.3H5.39999C4.89999 10.3 4.60001 10.7 4.60001 11.1V12.8C4.60001 13.3 4.99999 13.6 5.39999 13.6H10.4V18.6C10.4 19.1 10.8 19.4 11.2 19.4H12.9C13.4 19.4 13.7 19 13.7 18.6V13.6H18.7C19.2 13.6 19.5 13.2 19.5 12.8V11.1C19.5 10.7 19.1 10.3 18.7 10.3Z" fill="#FF0E46"/>
</svg>
