<svg width="24" height="24" viewBox="0 0 24 24" fill="none" xmlns="http://www.w3.org/2000/svg">
<path d="M23 24H1C0.4 24 0 23.6 0 23V1C0 0.4 0.4 0 1 0H23C23.6 0 24 0.4 24 1V23C24 23.6 23.6 24 23 24Z" fill="#CFCFCF"/>
<path d="M18 13.5H6C5.4 13.5 5 13.1 5 12.5V11.5C5 10.9 5.4 10.5 6 10.5H18C18.6 10.5 19 10.9 19 11.5V12.5C19 13.1 18.6 13.5 18 13.5Z" fill="#FF0E46"/>
<path d="M13.5 6V18C13.5 18.6 13.1 19 12.5 19H11.5C10.9 19 10.5 18.6 10.5 18V6C10.5 5.4 10.9 5 11.5 5H12.5C13.1 5 13.5 5.5 13.5 6Z" fill="#FF0E46"/>
</svg>
