<svg width="24" height="24" viewBox="0 0 24 24" fill="none" xmlns="http://www.w3.org/2000/svg">
<g clip-path="url(#clip0_65_13)">
<path d="M11.9836 0.0126953C2.58363 0.0126953 -4.31637 10.9127 3.18363 20.7127C3.28363 20.8127 3.28363 20.9127 3.38363 20.9127C13.2836 28.2127 23.9836 21.4127 23.9836 12.0127C23.9836 5.4127 18.5836 0.0126953 11.9836 0.0126953ZM18.9836 12.6127C18.9836 13.1127 18.5836 13.5127 18.0836 13.5127H5.88363C5.78363 13.5127 5.58363 13.5127 5.48363 13.4127C5.18363 13.2127 4.98363 12.9127 4.98363 12.6127V11.5127C4.98363 10.9127 5.38363 10.5127 5.98363 10.5127H18.0836C18.1836 10.5127 18.2836 10.5127 18.3836 10.5127C18.7836 10.6127 19.0836 11.0127 19.0836 11.4127V12.6127H18.9836Z" fill="#183153"/>
</g>
<defs>
<clipPath id="clip0_65_13">
<rect width="24" height="24" fill="white"/>
</clipPath>
</defs>
</svg>
