<svg width="24" height="24" viewBox="0 0 24 24" fill="none" xmlns="http://www.w3.org/2000/svg">
<path fill-rule="evenodd" clip-rule="evenodd" d="M24 12C24 18.6274 18.6274 24 12 24C5.37258 24 0 18.6274 0 12C0 5.37258 5.37258 0 12 0C18.6274 0 24 5.37258 24 12ZM10.5 18V13.5H6C5.4 13.5 5 13.1 5 12.5V11.5C5 10.9 5.4 10.5 6 10.5H10.5V6C10.5 5.4 10.9 5 11.5 5H12.5C13.1 5 13.5 5.5 13.5 6V10.5H18C18.6 10.5 19 10.9 19 11.5V12.5C19 13.1 18.6 13.5 18 13.5H13.5V18C13.5 18.6 13.1 19 12.5 19H11.5C10.9 19 10.5 18.6 10.5 18Z" fill="#183153"/>
</svg>
